<svg viewBox="0 0 64 64" xmlns="http://www.w3.org/2000/svg">
  <!-- Background -->
  <rect x="2" y="2" width="60" height="60" rx="8" fill="#3498db" stroke="#2980b9" stroke-width="2"/>
  
  <!-- Grid lines -->
  <line x1="8" y1="52" x2="56" y2="52" stroke="#f8f9fa" stroke-width="1" stroke-opacity="0.6"/>
  <line x1="8" y1="40" x2="56" y2="40" stroke="#f8f9fa" stroke-width="1" stroke-opacity="0.6"/>
  <line x1="8" y1="28" x2="56" y2="28" stroke="#f8f9fa" stroke-width="1" stroke-opacity="0.6"/>
  <line x1="8" y1="16" x2="56" y2="16" stroke="#f8f9fa" stroke-width="1" stroke-opacity="0.6"/>
  
  <line x1="20" y1="8" x2="20" y2="56" stroke="#f8f9fa" stroke-width="1" stroke-opacity="0.6"/>
  <line x1="32" y1="8" x2="32" y2="56" stroke="#f8f9fa" stroke-width="1" stroke-opacity="0.6"/>
  <line x1="44" y1="8" x2="44" y2="56" stroke="#f8f9fa" stroke-width="1" stroke-opacity="0.6"/>
  
  <!-- X and Y axes -->
  <line x1="8" y1="52" x2="56" y2="52" stroke="#ffffff" stroke-width="2"/>
  <line x1="8" y1="8" x2="8" y2="52" stroke="#ffffff" stroke-width="2"/>
  
  <!-- Regression line -->
  <line x1="8" y1="44" x2="56" y2="12" stroke="#2ecc71" stroke-width="3"/>
  
  <!-- Data points -->
  <circle cx="14" cy="40" r="3" fill="#e74c3c"/>
  <circle cx="22" cy="36" r="3" fill="#e74c3c"/>
  <circle cx="32" cy="24" r="3" fill="#e74c3c"/>
  <circle cx="38" cy="20" r="3" fill="#e74c3c"/>
  <circle cx="48" cy="16" r="3" fill="#e74c3c"/>
  
  <!-- Formula text -->
  <text x="32" y="61" font-family="Arial, sans-serif" font-size="10" font-weight="bold" text-anchor="middle" fill="#ffffff">y=mx+b</text>
</svg>
